<svg width="60" height="60" viewBox="0 0 60 60" fill="none" xmlns="http://www.w3.org/2000/svg">
<g filter="url(#filter0_d)">
<mask id="mask0" mask-type="alpha" maskUnits="userSpaceOnUse" x="18" y="16" width="20" height="20">
<circle cx="28" cy="26" r="10" fill="#C4C4C4"/>
</mask>
<g mask="url(#mask0)">
<rect x="15.8125" y="16.0303" width="30.625" height="20" rx="2" fill="white"/>
<mask id="mask1" mask-type="alpha" maskUnits="userSpaceOnUse" x="15" y="16" width="32" height="21">
<rect x="15.8125" y="16.0303" width="30.625" height="20" rx="2" fill="white"/>
</mask>
<g mask="url(#mask1)">
<path fill-rule="evenodd" clip-rule="evenodd" d="M46.4375 16.0303H15.8125V17.3636H46.4375V16.0303ZM46.4375 18.6969H15.8125V20.0302H46.4375V18.6969ZM15.8125 21.3636H46.4375V22.6969H15.8125V21.3636ZM46.4375 24.0302H15.8125V25.3636H46.4375V24.0302ZM15.8125 26.697H46.4375V28.0303H15.8125V26.697ZM46.4375 29.3636H15.8125V30.6969H46.4375V29.3636ZM15.8125 32.0303H46.4375V33.3636H15.8125V32.0303ZM46.4375 34.6969H15.8125V36.0303H46.4375V34.6969Z" fill="#D02F44"/>
<rect x="15.8125" y="16.0303" width="13.125" height="9.33333" fill="#46467F"/>
<g filter="url(#filter1_d)">
<path fill-rule="evenodd" clip-rule="evenodd" d="M18.7291 18.0304C18.7291 18.3986 18.4026 18.6971 17.9999 18.6971C17.5972 18.6971 17.2708 18.3986 17.2708 18.0304C17.2708 17.6622 17.5972 17.3638 17.9999 17.3638C18.4026 17.3638 18.7291 17.6622 18.7291 18.0304ZM21.6458 18.0304C21.6458 18.3986 21.3193 18.6971 20.9166 18.6971C20.5139 18.6971 20.1874 18.3986 20.1874 18.0304C20.1874 17.6622 20.5139 17.3638 20.9166 17.3638C21.3193 17.3638 21.6458 17.6622 21.6458 18.0304ZM23.8331 18.6971C24.2359 18.6971 24.5623 18.3986 24.5623 18.0304C24.5623 17.6622 24.2359 17.3638 23.8331 17.3638C23.4304 17.3638 23.104 17.6622 23.104 18.0304C23.104 18.3986 23.4304 18.6971 23.8331 18.6971ZM27.4791 18.0304C27.4791 18.3986 27.1526 18.6971 26.7499 18.6971C26.3472 18.6971 26.0207 18.3986 26.0207 18.0304C26.0207 17.6622 26.3472 17.3638 26.7499 17.3638C27.1526 17.3638 27.4791 17.6622 27.4791 18.0304ZM19.4583 20.0304C19.861 20.0304 20.1874 19.732 20.1874 19.3638C20.1874 18.9956 19.861 18.6971 19.4583 18.6971C19.0556 18.6971 18.7291 18.9956 18.7291 19.3638C18.7291 19.732 19.0556 20.0304 19.4583 20.0304ZM23.1041 19.3638C23.1041 19.732 22.7776 20.0304 22.3749 20.0304C21.9722 20.0304 21.6458 19.732 21.6458 19.3638C21.6458 18.9956 21.9722 18.6971 22.3749 18.6971C22.7776 18.6971 23.1041 18.9956 23.1041 19.3638ZM25.2916 20.0304C25.6943 20.0304 26.0207 19.732 26.0207 19.3638C26.0207 18.9956 25.6943 18.6971 25.2916 18.6971C24.8889 18.6971 24.5624 18.9956 24.5624 19.3638C24.5624 19.732 24.8889 20.0304 25.2916 20.0304ZM27.4791 20.6971C27.4791 21.0653 27.1526 21.3637 26.7499 21.3637C26.3472 21.3637 26.0207 21.0653 26.0207 20.6971C26.0207 20.3289 26.3472 20.0304 26.7499 20.0304C27.1526 20.0304 27.4791 20.3289 27.4791 20.6971ZM23.8331 21.3637C24.2359 21.3637 24.5623 21.0653 24.5623 20.6971C24.5623 20.3289 24.2359 20.0304 23.8331 20.0304C23.4304 20.0304 23.104 20.3289 23.104 20.6971C23.104 21.0653 23.4304 21.3637 23.8331 21.3637ZM21.6458 20.6971C21.6458 21.0653 21.3193 21.3637 20.9166 21.3637C20.5139 21.3637 20.1874 21.0653 20.1874 20.6971C20.1874 20.3289 20.5139 20.0304 20.9166 20.0304C21.3193 20.0304 21.6458 20.3289 21.6458 20.6971ZM17.9999 21.3637C18.4026 21.3637 18.7291 21.0653 18.7291 20.6971C18.7291 20.3289 18.4026 20.0304 17.9999 20.0304C17.5972 20.0304 17.2708 20.3289 17.2708 20.6971C17.2708 21.0653 17.5972 21.3637 17.9999 21.3637ZM20.1874 22.0304C20.1874 22.3986 19.861 22.6971 19.4583 22.6971C19.0556 22.6971 18.7291 22.3986 18.7291 22.0304C18.7291 21.6623 19.0556 21.3638 19.4583 21.3638C19.861 21.3638 20.1874 21.6623 20.1874 22.0304ZM22.3749 22.6971C22.7776 22.6971 23.1041 22.3986 23.1041 22.0304C23.1041 21.6623 22.7776 21.3638 22.3749 21.3638C21.9722 21.3638 21.6458 21.6623 21.6458 22.0304C21.6458 22.3986 21.9722 22.6971 22.3749 22.6971ZM26.0207 22.0304C26.0207 22.3986 25.6943 22.6971 25.2916 22.6971C24.8889 22.6971 24.5624 22.3986 24.5624 22.0304C24.5624 21.6623 24.8889 21.3638 25.2916 21.3638C25.6943 21.3638 26.0207 21.6623 26.0207 22.0304ZM26.7499 24.0304C27.1526 24.0304 27.4791 23.732 27.4791 23.3638C27.4791 22.9956 27.1526 22.6971 26.7499 22.6971C26.3472 22.6971 26.0207 22.9956 26.0207 23.3638C26.0207 23.732 26.3472 24.0304 26.7499 24.0304ZM24.5623 23.3638C24.5623 23.732 24.2359 24.0304 23.8331 24.0304C23.4304 24.0304 23.104 23.732 23.104 23.3638C23.104 22.9956 23.4304 22.6971 23.8331 22.6971C24.2359 22.6971 24.5623 22.9956 24.5623 23.3638ZM20.9166 24.0304C21.3193 24.0304 21.6458 23.732 21.6458 23.3638C21.6458 22.9956 21.3193 22.6971 20.9166 22.6971C20.5139 22.6971 20.1874 22.9956 20.1874 23.3638C20.1874 23.732 20.5139 24.0304 20.9166 24.0304ZM18.7291 23.3638C18.7291 23.732 18.4026 24.0304 17.9999 24.0304C17.5972 24.0304 17.2708 23.732 17.2708 23.3638C17.2708 22.9956 17.5972 22.6971 17.9999 22.6971C18.4026 22.6971 18.7291 22.9956 18.7291 23.3638Z" fill="url(#paint0_linear)"/>
</g>
</g>
</g>
</g>
<defs>
<filter id="filter0_d" x="0" y="0.0302734" width="60" height="59.9697" filterUnits="userSpaceOnUse" color-interpolation-filters="sRGB">
<feFlood flood-opacity="0" result="BackgroundImageFix"/>
<feColorMatrix in="SourceAlpha" type="matrix" values="0 0 0 0 0 0 0 0 0 0 0 0 0 0 0 0 0 0 127 0" result="hardAlpha"/>
<feOffset dx="2" dy="4"/>
<feGaussianBlur stdDeviation="10"/>
<feColorMatrix type="matrix" values="0 0 0 0 0 0 0 0 0 0 0 0 0 0 0 0 0 0 0.1 0"/>
<feBlend mode="normal" in2="BackgroundImageFix" result="effect1_dropShadow"/>
<feBlend mode="normal" in="SourceGraphic" in2="effect1_dropShadow" result="shape"/>
</filter>
<filter id="filter1_d" x="17.2708" y="17.3638" width="10.2083" height="7.66666" filterUnits="userSpaceOnUse" color-interpolation-filters="sRGB">
<feFlood flood-opacity="0" result="BackgroundImageFix"/>
<feColorMatrix in="SourceAlpha" type="matrix" values="0 0 0 0 0 0 0 0 0 0 0 0 0 0 0 0 0 0 127 0" result="hardAlpha"/>
<feOffset dy="1"/>
<feColorMatrix type="matrix" values="0 0 0 0 0 0 0 0 0 0 0 0 0 0 0 0 0 0 0.06 0"/>
<feBlend mode="normal" in2="BackgroundImageFix" result="effect1_dropShadow"/>
<feBlend mode="normal" in="SourceGraphic" in2="effect1_dropShadow" result="shape"/>
</filter>
<linearGradient id="paint0_linear" x1="17.2708" y1="17.3638" x2="17.2708" y2="24.0304" gradientUnits="userSpaceOnUse">
<stop stop-color="white"/>
<stop offset="1" stop-color="#F0F0F0"/>
</linearGradient>
</defs>
</svg>
