<svg width="90" height="24" viewBox="0 0 90 24" fill="none" xmlns="http://www.w3.org/2000/svg">
<rect x="-0.000366211" width="90" height="24" rx="8" fill="#FDAB2A" fill-opacity="0.15"/>
<path d="M13.1616 7.298H14.9256V17H13.1616V7.298ZM17.1655 9.916C17.4922 9.82267 17.9169 9.734 18.4395 9.65C18.9622 9.566 19.5409 9.524 20.1755 9.524C20.7729 9.524 21.2722 9.608 21.6735 9.776C22.0749 9.93467 22.3922 10.1633 22.6255 10.462C22.8682 10.7513 23.0362 11.106 23.1295 11.526C23.2322 11.9367 23.2835 12.3893 23.2835 12.884V17H21.5895V13.15C21.5895 12.758 21.5615 12.4267 21.5055 12.156C21.4589 11.876 21.3749 11.652 21.2535 11.484C21.1415 11.3067 20.9829 11.1807 20.7775 11.106C20.5815 11.022 20.3389 10.98 20.0495 10.98C19.8349 10.98 19.6109 10.994 19.3775 11.022C19.1442 11.05 18.9715 11.0733 18.8595 11.092V17H17.1655V9.916ZM33.4806 13.374C33.4806 12.618 33.3079 12.03 32.9626 11.61C32.6266 11.19 32.0806 10.98 31.3246 10.98C31.1659 10.98 30.9979 10.9893 30.8206 11.008C30.6526 11.0173 30.4846 11.0453 30.3166 11.092V15.278C30.4659 15.3807 30.6619 15.4787 30.9046 15.572C31.1566 15.656 31.4226 15.698 31.7026 15.698C32.3186 15.698 32.7666 15.488 33.0466 15.068C33.3359 14.648 33.4806 14.0833 33.4806 13.374ZM35.2166 13.346C35.2166 13.906 35.1419 14.4193 34.9926 14.886C34.8526 15.3527 34.6472 15.754 34.3766 16.09C34.1059 16.426 33.7652 16.6873 33.3546 16.874C32.9532 17.0607 32.4959 17.154 31.9826 17.154C31.6372 17.154 31.3199 17.112 31.0306 17.028C30.7412 16.944 30.5032 16.8507 30.3166 16.748V19.59H28.6226V9.916C28.9679 9.82267 29.3926 9.734 29.8966 9.65C30.4006 9.566 30.9326 9.524 31.4926 9.524C32.0712 9.524 32.5892 9.61267 33.0466 9.79C33.5039 9.96733 33.8912 10.224 34.2086 10.56C34.5352 10.8867 34.7826 11.288 34.9506 11.764C35.1279 12.2307 35.2166 12.758 35.2166 13.346ZM41.1344 11.204C40.9944 11.1573 40.7984 11.1107 40.5464 11.064C40.3037 11.008 40.0191 10.98 39.6924 10.98C39.5057 10.98 39.3051 10.9987 39.0904 11.036C38.8851 11.0733 38.7404 11.106 38.6564 11.134V17H36.9624V10.028C37.2891 9.90667 37.6951 9.79467 38.1804 9.692C38.6751 9.58 39.2211 9.524 39.8184 9.524C39.9304 9.524 40.0611 9.53333 40.2104 9.552C40.3597 9.56133 40.5091 9.58 40.6584 9.608C40.8077 9.62667 40.9524 9.65467 41.0924 9.692C41.2324 9.72 41.3444 9.748 41.4284 9.776L41.1344 11.204ZM49.2309 13.332C49.2309 13.9107 49.1469 14.438 48.9789 14.914C48.8109 15.39 48.5729 15.796 48.2649 16.132C47.9569 16.468 47.5836 16.7293 47.1449 16.916C46.7156 17.1027 46.2396 17.196 45.7169 17.196C45.1942 17.196 44.7182 17.1027 44.2889 16.916C43.8596 16.7293 43.4909 16.468 43.1829 16.132C42.8749 15.796 42.6322 15.39 42.4549 14.914C42.2869 14.438 42.2029 13.9107 42.2029 13.332C42.2029 12.7533 42.2869 12.2307 42.4549 11.764C42.6322 11.288 42.8749 10.882 43.1829 10.546C43.5002 10.21 43.8736 9.95333 44.3029 9.776C44.7322 9.58933 45.2036 9.496 45.7169 9.496C46.2302 9.496 46.7016 9.58933 47.1309 9.776C47.5696 9.95333 47.9429 10.21 48.2509 10.546C48.5589 10.882 48.7969 11.288 48.9649 11.764C49.1422 12.2307 49.2309 12.7533 49.2309 13.332ZM47.4949 13.332C47.4949 12.604 47.3362 12.03 47.0189 11.61C46.7109 11.1807 46.2769 10.966 45.7169 10.966C45.1569 10.966 44.7182 11.1807 44.4009 11.61C44.0929 12.03 43.9389 12.604 43.9389 13.332C43.9389 14.0693 44.0929 14.6527 44.4009 15.082C44.7182 15.5113 45.1569 15.726 45.7169 15.726C46.2769 15.726 46.7109 15.5113 47.0189 15.082C47.3362 14.6527 47.4949 14.0693 47.4949 13.332ZM50.5701 13.346C50.5701 12.8047 50.6541 12.3007 50.8221 11.834C50.9901 11.358 51.2281 10.9473 51.5361 10.602C51.8534 10.2567 52.2361 9.986 52.6841 9.79C53.1321 9.594 53.6361 9.496 54.1961 9.496C54.8867 9.496 55.5401 9.622 56.1561 9.874L55.7921 11.26C55.5961 11.176 55.3721 11.106 55.1201 11.05C54.8774 10.994 54.6161 10.966 54.3361 10.966C53.6734 10.966 53.1694 11.176 52.8241 11.596C52.4787 12.0067 52.3061 12.59 52.3061 13.346C52.3061 14.074 52.4694 14.6527 52.7961 15.082C53.1227 15.502 53.6734 15.712 54.4481 15.712C54.7374 15.712 55.0221 15.684 55.3021 15.628C55.5821 15.572 55.8247 15.502 56.0301 15.418L56.2681 16.818C56.0814 16.9113 55.7967 16.9953 55.4141 17.07C55.0407 17.1447 54.6534 17.182 54.2521 17.182C53.6267 17.182 53.0807 17.0887 52.6141 16.902C52.1567 16.706 51.7741 16.44 51.4661 16.104C51.1674 15.7587 50.9434 15.3527 50.7941 14.886C50.6447 14.41 50.5701 13.8967 50.5701 13.346ZM57.1736 13.374C57.1736 12.73 57.2669 12.1653 57.4536 11.68C57.6496 11.1947 57.9063 10.7933 58.2236 10.476C58.5409 10.1493 58.9049 9.90667 59.3156 9.748C59.7263 9.58 60.1463 9.496 60.5756 9.496C61.5836 9.496 62.3676 9.80867 62.9276 10.434C63.4969 11.0593 63.7816 11.9927 63.7816 13.234C63.7816 13.3273 63.7769 13.4347 63.7676 13.556C63.7676 13.668 63.7629 13.7707 63.7536 13.864H58.9236C58.9703 14.452 59.1756 14.9093 59.5396 15.236C59.9129 15.5533 60.4496 15.712 61.1496 15.712C61.5603 15.712 61.9336 15.6747 62.2696 15.6C62.6149 15.5253 62.8856 15.446 63.0816 15.362L63.3056 16.748C63.2123 16.7947 63.0816 16.846 62.9136 16.902C62.7549 16.9487 62.5683 16.9907 62.3536 17.028C62.1483 17.0747 61.9243 17.112 61.6816 17.14C61.4389 17.168 61.1916 17.182 60.9396 17.182C60.2956 17.182 59.7356 17.0887 59.2596 16.902C58.7836 16.706 58.3916 16.44 58.0836 16.104C57.7756 15.7587 57.5469 15.3573 57.3976 14.9C57.2483 14.4333 57.1736 13.9247 57.1736 13.374ZM62.0876 12.618C62.0876 12.3847 62.0549 12.1653 61.9896 11.96C61.9243 11.7453 61.8263 11.5633 61.6956 11.414C61.5743 11.2553 61.4203 11.134 61.2336 11.05C61.0563 10.9567 60.8416 10.91 60.5896 10.91C60.3283 10.91 60.0996 10.9613 59.9036 11.064C59.7076 11.1573 59.5396 11.2833 59.3996 11.442C59.2689 11.6007 59.1663 11.7827 59.0916 11.988C59.0169 12.1933 58.9656 12.4033 58.9376 12.618H62.0876ZM67.4116 15.782C67.8596 15.782 68.1863 15.7307 68.3916 15.628C68.597 15.516 68.6996 15.3293 68.6996 15.068C68.6996 14.8253 68.5876 14.6247 68.3636 14.466C68.149 14.3073 67.7896 14.1347 67.2856 13.948C66.9776 13.836 66.693 13.7193 66.4316 13.598C66.1796 13.4673 65.9603 13.318 65.7736 13.15C65.587 12.982 65.4376 12.7813 65.3256 12.548C65.223 12.3053 65.1716 12.0113 65.1716 11.666C65.1716 10.994 65.419 10.4667 65.9136 10.084C66.4083 9.692 67.0803 9.496 67.9296 9.496C68.359 9.496 68.7696 9.538 69.1616 9.622C69.5536 9.69667 69.8476 9.77133 70.0436 9.846L69.7356 11.218C69.549 11.134 69.311 11.0593 69.0216 10.994C68.7323 10.9193 68.3963 10.882 68.0136 10.882C67.6683 10.882 67.3883 10.9427 67.1736 11.064C66.959 11.176 66.8516 11.3533 66.8516 11.596C66.8516 11.7173 66.8703 11.8247 66.9076 11.918C66.9543 12.0113 67.029 12.1 67.1316 12.184C67.2343 12.2587 67.3696 12.338 67.5376 12.422C67.7056 12.4967 67.911 12.576 68.1536 12.66C68.555 12.8093 68.8956 12.9587 69.1756 13.108C69.4556 13.248 69.6843 13.4113 69.8616 13.598C70.0483 13.7753 70.1836 13.9807 70.2676 14.214C70.3516 14.4473 70.3936 14.7273 70.3936 15.054C70.3936 15.754 70.1323 16.286 69.6096 16.65C69.0963 17.0047 68.359 17.182 67.3976 17.182C66.7536 17.182 66.2356 17.126 65.8436 17.014C65.4516 16.9113 65.1763 16.8273 65.0176 16.762L65.3116 15.348C65.5636 15.4507 65.8623 15.5487 66.2076 15.642C66.5623 15.7353 66.9636 15.782 67.4116 15.782ZM73.8101 15.782C74.2581 15.782 74.5847 15.7307 74.7901 15.628C74.9954 15.516 75.0981 15.3293 75.0981 15.068C75.0981 14.8253 74.9861 14.6247 74.7621 14.466C74.5474 14.3073 74.1881 14.1347 73.6841 13.948C73.3761 13.836 73.0914 13.7193 72.8301 13.598C72.5781 13.4673 72.3587 13.318 72.1721 13.15C71.9854 12.982 71.8361 12.7813 71.7241 12.548C71.6214 12.3053 71.5701 12.0113 71.5701 11.666C71.5701 10.994 71.8174 10.4667 72.3121 10.084C72.8067 9.692 73.4787 9.496 74.3281 9.496C74.7574 9.496 75.1681 9.538 75.5601 9.622C75.9521 9.69667 76.2461 9.77133 76.4421 9.846L76.1341 11.218C75.9474 11.134 75.7094 11.0593 75.4201 10.994C75.1307 10.9193 74.7947 10.882 74.4121 10.882C74.0667 10.882 73.7867 10.9427 73.5721 11.064C73.3574 11.176 73.2501 11.3533 73.2501 11.596C73.2501 11.7173 73.2687 11.8247 73.3061 11.918C73.3527 12.0113 73.4274 12.1 73.5301 12.184C73.6327 12.2587 73.7681 12.338 73.9361 12.422C74.1041 12.4967 74.3094 12.576 74.5521 12.66C74.9534 12.8093 75.2941 12.9587 75.5741 13.108C75.8541 13.248 76.0827 13.4113 76.2601 13.598C76.4467 13.7753 76.5821 13.9807 76.6661 14.214C76.7501 14.4473 76.7921 14.7273 76.7921 15.054C76.7921 15.754 76.5307 16.286 76.0081 16.65C75.4947 17.0047 74.7574 17.182 73.7961 17.182C73.1521 17.182 72.6341 17.126 72.2421 17.014C71.8501 16.9113 71.5747 16.8273 71.4161 16.762L71.7101 15.348C71.9621 15.4507 72.2607 15.5487 72.6061 15.642C72.9607 15.7353 73.3621 15.782 73.8101 15.782Z" fill="#FDAB2A"/>
</svg>
