<svg width="136" height="117" viewBox="0 0 136 117" fill="none" xmlns="http://www.w3.org/2000/svg">
<g opacity="0.2">
<path d="M9.324 111H7.364L2.926 104.294V111H0.966V101.214H2.926L7.364 107.934V101.214H9.324V111ZM14.5399 111.126C13.7933 111.126 13.1213 110.963 12.5239 110.636C11.9266 110.3 11.4553 109.829 11.1099 109.222C10.7739 108.615 10.6059 107.915 10.6059 107.122C10.6059 106.329 10.7786 105.629 11.1239 105.022C11.4786 104.415 11.9593 103.949 12.5659 103.622C13.1726 103.286 13.8493 103.118 14.5959 103.118C15.3426 103.118 16.0193 103.286 16.6259 103.622C17.2326 103.949 17.7086 104.415 18.0539 105.022C18.4086 105.629 18.5859 106.329 18.5859 107.122C18.5859 107.915 18.4039 108.615 18.0399 109.222C17.6853 109.829 17.1999 110.3 16.5839 110.636C15.9773 110.963 15.2959 111.126 14.5399 111.126ZM14.5399 109.418C14.8946 109.418 15.2259 109.334 15.5339 109.166C15.8513 108.989 16.1033 108.727 16.2899 108.382C16.4766 108.037 16.5699 107.617 16.5699 107.122C16.5699 106.385 16.3739 105.82 15.9819 105.428C15.5993 105.027 15.1279 104.826 14.5679 104.826C14.0079 104.826 13.5366 105.027 13.1539 105.428C12.7806 105.82 12.5939 106.385 12.5939 107.122C12.5939 107.859 12.7759 108.429 13.1399 108.83C13.5133 109.222 13.9799 109.418 14.5399 109.418ZM25.9976 111.126C25.3629 111.126 24.7936 111.014 24.2896 110.79C23.7856 110.557 23.3843 110.244 23.0856 109.852C22.7963 109.46 22.6376 109.026 22.6096 108.55H24.5836C24.6209 108.849 24.7656 109.096 25.0176 109.292C25.2789 109.488 25.6009 109.586 25.9836 109.586C26.3569 109.586 26.6463 109.511 26.8516 109.362C27.0663 109.213 27.1736 109.021 27.1736 108.788C27.1736 108.536 27.0429 108.349 26.7816 108.228C26.5296 108.097 26.1236 107.957 25.5636 107.808C24.9849 107.668 24.5089 107.523 24.1356 107.374C23.7716 107.225 23.4543 106.996 23.1836 106.688C22.9223 106.38 22.7916 105.965 22.7916 105.442C22.7916 105.013 22.9129 104.621 23.1556 104.266C23.4076 103.911 23.7623 103.631 24.2196 103.426C24.6863 103.221 25.2323 103.118 25.8576 103.118C26.7816 103.118 27.5189 103.351 28.0696 103.818C28.6203 104.275 28.9236 104.896 28.9796 105.68H27.1036C27.0756 105.372 26.9449 105.129 26.7116 104.952C26.4876 104.765 26.1843 104.672 25.8016 104.672C25.4469 104.672 25.1716 104.737 24.9756 104.868C24.7889 104.999 24.6956 105.181 24.6956 105.414C24.6956 105.675 24.8263 105.876 25.0876 106.016C25.3489 106.147 25.7549 106.282 26.3056 106.422C26.8656 106.562 27.3276 106.707 27.6916 106.856C28.0556 107.005 28.3683 107.239 28.6296 107.556C28.9003 107.864 29.0403 108.275 29.0496 108.788C29.0496 109.236 28.9236 109.637 28.6716 109.992C28.4289 110.347 28.0743 110.627 27.6076 110.832C27.1503 111.028 26.6136 111.126 25.9976 111.126ZM29.9895 107.094C29.9895 106.31 30.1435 105.615 30.4515 105.008C30.7688 104.401 31.1935 103.935 31.7255 103.608C32.2668 103.281 32.8688 103.118 33.5315 103.118C34.1102 103.118 34.6142 103.235 35.0435 103.468C35.4822 103.701 35.8322 103.995 36.0935 104.35V103.244H38.0675V111H36.0935V109.866C35.8415 110.23 35.4915 110.533 35.0435 110.776C34.6048 111.009 34.0962 111.126 33.5175 111.126C32.8642 111.126 32.2668 110.958 31.7255 110.622C31.1935 110.286 30.7688 109.815 30.4515 109.208C30.1435 108.592 29.9895 107.887 29.9895 107.094ZM36.0935 107.122C36.0935 106.646 36.0002 106.24 35.8135 105.904C35.6268 105.559 35.3748 105.297 35.0575 105.12C34.7402 104.933 34.3995 104.84 34.0355 104.84C33.6715 104.84 33.3355 104.929 33.0275 105.106C32.7195 105.283 32.4675 105.545 32.2715 105.89C32.0848 106.226 31.9915 106.627 31.9915 107.094C31.9915 107.561 32.0848 107.971 32.2715 108.326C32.4675 108.671 32.7195 108.937 33.0275 109.124C33.3448 109.311 33.6808 109.404 34.0355 109.404C34.3995 109.404 34.7402 109.315 35.0575 109.138C35.3748 108.951 35.6268 108.69 35.8135 108.354C36.0002 108.009 36.0935 107.598 36.0935 107.122ZM43.0508 109.194L45.0108 103.244H47.0968L44.2268 111H41.8468L38.9908 103.244H41.0908L43.0508 109.194ZM55.2426 106.954C55.2426 107.234 55.224 107.486 55.1866 107.71H49.5166C49.5633 108.27 49.7593 108.709 50.1046 109.026C50.45 109.343 50.8746 109.502 51.3786 109.502C52.1066 109.502 52.6246 109.189 52.9326 108.564H55.0466C54.8226 109.311 54.3933 109.927 53.7586 110.412C53.124 110.888 52.3446 111.126 51.4206 111.126C50.674 111.126 50.002 110.963 49.4046 110.636C48.8166 110.3 48.3546 109.829 48.0186 109.222C47.692 108.615 47.5286 107.915 47.5286 107.122C47.5286 106.319 47.692 105.615 48.0186 105.008C48.3453 104.401 48.8026 103.935 49.3906 103.608C49.9786 103.281 50.6553 103.118 51.4206 103.118C52.158 103.118 52.816 103.277 53.3946 103.594C53.9826 103.911 54.4353 104.364 54.7526 104.952C55.0793 105.531 55.2426 106.198 55.2426 106.954ZM53.2126 106.394C53.2033 105.89 53.0213 105.489 52.6666 105.19C52.312 104.882 51.878 104.728 51.3646 104.728C50.8793 104.728 50.4686 104.877 50.1326 105.176C49.806 105.465 49.6053 105.871 49.5306 106.394H53.2126ZM56.0043 107.094C56.0043 106.31 56.1583 105.615 56.4663 105.008C56.7836 104.401 57.2129 103.935 57.7543 103.608C58.2956 103.281 58.8976 103.118 59.5603 103.118C60.0643 103.118 60.5449 103.23 61.0023 103.454C61.4596 103.669 61.8236 103.958 62.0943 104.322V100.64H64.0823V111H62.0943V109.852C61.8516 110.235 61.5109 110.543 61.0723 110.776C60.6336 111.009 60.1249 111.126 59.5463 111.126C58.8929 111.126 58.2956 110.958 57.7543 110.622C57.2129 110.286 56.7836 109.815 56.4663 109.208C56.1583 108.592 56.0043 107.887 56.0043 107.094ZM62.1083 107.122C62.1083 106.646 62.0149 106.24 61.8283 105.904C61.6416 105.559 61.3896 105.297 61.0723 105.12C60.7549 104.933 60.4143 104.84 60.0503 104.84C59.6863 104.84 59.3503 104.929 59.0423 105.106C58.7343 105.283 58.4823 105.545 58.2863 105.89C58.0996 106.226 58.0063 106.627 58.0063 107.094C58.0063 107.561 58.0996 107.971 58.2863 108.326C58.4823 108.671 58.7343 108.937 59.0423 109.124C59.3596 109.311 59.6956 109.404 60.0503 109.404C60.4143 109.404 60.7549 109.315 61.0723 109.138C61.3896 108.951 61.6416 108.69 61.8283 108.354C62.0149 108.009 62.1083 107.598 62.1083 107.122ZM68.4985 107.122C68.4985 106.319 68.6618 105.619 68.9885 105.022C69.3152 104.415 69.7678 103.949 70.3465 103.622C70.9252 103.286 71.5878 103.118 72.3345 103.118C73.2958 103.118 74.0892 103.361 74.7145 103.846C75.3492 104.322 75.7738 104.994 75.9885 105.862H73.8745C73.7625 105.526 73.5712 105.265 73.3005 105.078C73.0392 104.882 72.7125 104.784 72.3205 104.784C71.7605 104.784 71.3172 104.989 70.9905 105.4C70.6638 105.801 70.5005 106.375 70.5005 107.122C70.5005 107.859 70.6638 108.433 70.9905 108.844C71.3172 109.245 71.7605 109.446 72.3205 109.446C73.1138 109.446 73.6318 109.091 73.8745 108.382H75.9885C75.7738 109.222 75.3492 109.889 74.7145 110.384C74.0798 110.879 73.2865 111.126 72.3345 111.126C71.5878 111.126 70.9252 110.963 70.3465 110.636C69.7678 110.3 69.3152 109.833 68.9885 109.236C68.6618 108.629 68.4985 107.925 68.4985 107.122ZM80.7034 111.126C79.9567 111.126 79.2847 110.963 78.6874 110.636C78.09 110.3 77.6187 109.829 77.2734 109.222C76.9374 108.615 76.7694 107.915 76.7694 107.122C76.7694 106.329 76.942 105.629 77.2874 105.022C77.642 104.415 78.1227 103.949 78.7294 103.622C79.336 103.286 80.0127 103.118 80.7594 103.118C81.506 103.118 82.1827 103.286 82.7894 103.622C83.396 103.949 83.872 104.415 84.2174 105.022C84.572 105.629 84.7494 106.329 84.7494 107.122C84.7494 107.915 84.5674 108.615 84.2034 109.222C83.8487 109.829 83.3634 110.3 82.7474 110.636C82.1407 110.963 81.4594 111.126 80.7034 111.126ZM80.7034 109.418C81.058 109.418 81.3894 109.334 81.6974 109.166C82.0147 108.989 82.2667 108.727 82.4534 108.382C82.64 108.037 82.7334 107.617 82.7334 107.122C82.7334 106.385 82.5374 105.82 82.1454 105.428C81.7627 105.027 81.2914 104.826 80.7314 104.826C80.1714 104.826 79.7 105.027 79.3174 105.428C78.944 105.82 78.7574 106.385 78.7574 107.122C78.7574 107.859 78.9394 108.429 79.3034 108.83C79.6767 109.222 80.1434 109.418 80.7034 109.418ZM90.3201 103.132C91.2441 103.132 91.9908 103.426 92.5601 104.014C93.1294 104.593 93.4141 105.405 93.4141 106.45V111H91.4541V106.716C91.4541 106.1 91.3001 105.629 90.9921 105.302C90.6841 104.966 90.2641 104.798 89.7321 104.798C89.1908 104.798 88.7614 104.966 88.4441 105.302C88.1361 105.629 87.9821 106.1 87.9821 106.716V111H86.0221V103.244H87.9821V104.21C88.2434 103.874 88.5748 103.613 88.9761 103.426C89.3868 103.23 89.8348 103.132 90.3201 103.132ZM97.3949 104.854V108.606C97.3949 108.867 97.4556 109.059 97.5769 109.18C97.7076 109.292 97.9223 109.348 98.2209 109.348H99.1309V111H97.8989C96.2469 111 95.4209 110.197 95.4209 108.592V104.854H94.4969V103.244H95.4209V101.326H97.3949V103.244H99.1309V104.854H97.3949ZM102.336 104.448C102.588 104.037 102.914 103.715 103.316 103.482C103.726 103.249 104.193 103.132 104.716 103.132V105.19H104.198C103.582 105.19 103.115 105.335 102.798 105.624C102.49 105.913 102.336 106.417 102.336 107.136V111H100.376V103.244H102.336V104.448ZM105.367 107.094C105.367 106.31 105.521 105.615 105.829 105.008C106.146 104.401 106.571 103.935 107.103 103.608C107.644 103.281 108.246 103.118 108.909 103.118C109.488 103.118 109.992 103.235 110.421 103.468C110.86 103.701 111.21 103.995 111.471 104.35V103.244H113.445V111H111.471V109.866C111.219 110.23 110.869 110.533 110.421 110.776C109.982 111.009 109.474 111.126 108.895 111.126C108.242 111.126 107.644 110.958 107.103 110.622C106.571 110.286 106.146 109.815 105.829 109.208C105.521 108.592 105.367 107.887 105.367 107.094ZM111.471 107.122C111.471 106.646 111.378 106.24 111.191 105.904C111.004 105.559 110.752 105.297 110.435 105.12C110.118 104.933 109.777 104.84 109.413 104.84C109.049 104.84 108.713 104.929 108.405 105.106C108.097 105.283 107.845 105.545 107.649 105.89C107.462 106.226 107.369 106.627 107.369 107.094C107.369 107.561 107.462 107.971 107.649 108.326C107.845 108.671 108.097 108.937 108.405 109.124C108.722 109.311 109.058 109.404 109.413 109.404C109.777 109.404 110.118 109.315 110.435 109.138C110.752 108.951 111.004 108.69 111.191 108.354C111.378 108.009 111.471 107.598 111.471 107.122ZM114.69 107.122C114.69 106.319 114.853 105.619 115.18 105.022C115.507 104.415 115.959 103.949 116.538 103.622C117.117 103.286 117.779 103.118 118.526 103.118C119.487 103.118 120.281 103.361 120.906 103.846C121.541 104.322 121.965 104.994 122.18 105.862H120.066C119.954 105.526 119.763 105.265 119.492 105.078C119.231 104.882 118.904 104.784 118.512 104.784C117.952 104.784 117.509 104.989 117.182 105.4C116.855 105.801 116.692 106.375 116.692 107.122C116.692 107.859 116.855 108.433 117.182 108.844C117.509 109.245 117.952 109.446 118.512 109.446C119.305 109.446 119.823 109.091 120.066 108.382H122.18C121.965 109.222 121.541 109.889 120.906 110.384C120.271 110.879 119.478 111.126 118.526 111.126C117.779 111.126 117.117 110.963 116.538 110.636C115.959 110.3 115.507 109.833 115.18 109.236C114.853 108.629 114.69 107.925 114.69 107.122ZM125.733 104.854V108.606C125.733 108.867 125.794 109.059 125.915 109.18C126.046 109.292 126.26 109.348 126.559 109.348H127.469V111H126.237C124.585 111 123.759 110.197 123.759 108.592V104.854H122.835V103.244H123.759V101.326H125.733V103.244H127.469V104.854H125.733ZM131.682 111.126C131.047 111.126 130.478 111.014 129.974 110.79C129.47 110.557 129.068 110.244 128.77 109.852C128.48 109.46 128.322 109.026 128.294 108.55H130.268C130.305 108.849 130.45 109.096 130.702 109.292C130.963 109.488 131.285 109.586 131.668 109.586C132.041 109.586 132.33 109.511 132.536 109.362C132.75 109.213 132.858 109.021 132.858 108.788C132.858 108.536 132.727 108.349 132.466 108.228C132.214 108.097 131.808 107.957 131.248 107.808C130.669 107.668 130.193 107.523 129.82 107.374C129.456 107.225 129.138 106.996 128.868 106.688C128.606 106.38 128.476 105.965 128.476 105.442C128.476 105.013 128.597 104.621 128.84 104.266C129.092 103.911 129.446 103.631 129.904 103.426C130.37 103.221 130.916 103.118 131.542 103.118C132.466 103.118 133.203 103.351 133.754 103.818C134.304 104.275 134.608 104.896 134.664 105.68H132.788C132.76 105.372 132.629 105.129 132.396 104.952C132.172 104.765 131.868 104.672 131.486 104.672C131.131 104.672 130.856 104.737 130.66 104.868C130.473 104.999 130.38 105.181 130.38 105.414C130.38 105.675 130.51 105.876 130.772 106.016C131.033 106.147 131.439 106.282 131.99 106.422C132.55 106.562 133.012 106.707 133.376 106.856C133.74 107.005 134.052 107.239 134.314 107.556C134.584 107.864 134.724 108.275 134.734 108.788C134.734 109.236 134.608 109.637 134.356 109.992C134.113 110.347 133.758 110.627 133.292 110.832C132.834 111.028 132.298 111.126 131.682 111.126Z" fill="#F9F9F9"/>
<path d="M79.2566 7.3335H56.6333C46.7333 7.3335 38.6666 11.2568 38.6666 21.2302V76.8902C38.6666 78.9435 40.3166 80.6302 42.37 80.6302C42.9933 80.6302 43.6203 80.4432 44.1666 80.1535L67.9633 68.2735L91.7233 80.1535C92.6033 80.6668 93.6666 80.8135 94.62 80.5202C95.61 80.2268 96.4166 79.5668 96.8933 78.6868C97.1866 78.1368 97.3333 77.5135 97.3333 76.8902V21.2302C97.2233 11.2568 89.1933 7.3335 79.2566 7.3335Z" fill="#F9F9F9"/>
</g>
</svg>
