<svg width="49" height="21" viewBox="0 0 49 21" fill="none" xmlns="http://www.w3.org/2000/svg">
<rect x="-0.000366211" width="49" height="21" rx="8" fill="#49B7A5" fill-opacity="0.15"/>
<path d="M15.3476 6.6C16.5556 6.6 17.4796 6.82 18.1196 7.26C18.7676 7.7 19.0916 8.388 19.0916 9.324C19.0916 9.812 19.0036 10.232 18.8276 10.584C18.6596 10.928 18.4116 11.212 18.0836 11.436C17.7556 11.652 17.3556 11.812 16.8836 11.916C16.4116 12.02 15.8716 12.072 15.2636 12.072H14.5076V15H12.9956V6.804C13.3476 6.724 13.7356 6.672 14.1596 6.648C14.5916 6.616 14.9876 6.6 15.3476 6.6ZM15.4556 7.908C15.0716 7.908 14.7556 7.92 14.5076 7.944V10.776H15.2396C15.9676 10.776 16.5276 10.676 16.9196 10.476C17.3116 10.268 17.5076 9.88 17.5076 9.312C17.5076 9.04 17.4556 8.812 17.3516 8.628C17.2476 8.444 17.1036 8.3 16.9196 8.196C16.7356 8.092 16.5156 8.02 16.2596 7.98C16.0116 7.932 15.7436 7.908 15.4556 7.908ZM22.409 13.98C22.857 13.98 23.197 13.956 23.429 13.908V12.3C23.349 12.276 23.233 12.252 23.081 12.228C22.929 12.204 22.761 12.192 22.577 12.192C22.417 12.192 22.253 12.204 22.085 12.228C21.925 12.252 21.777 12.296 21.641 12.36C21.513 12.424 21.409 12.516 21.329 12.636C21.249 12.748 21.209 12.892 21.209 13.068C21.209 13.412 21.317 13.652 21.533 13.788C21.749 13.916 22.041 13.98 22.409 13.98ZM22.289 8.568C22.769 8.568 23.173 8.628 23.501 8.748C23.829 8.868 24.089 9.036 24.281 9.252C24.481 9.468 24.621 9.732 24.701 10.044C24.789 10.348 24.833 10.684 24.833 11.052V14.856C24.609 14.904 24.269 14.96 23.813 15.024C23.365 15.096 22.857 15.132 22.289 15.132C21.913 15.132 21.569 15.096 21.257 15.024C20.945 14.952 20.677 14.836 20.453 14.676C20.237 14.516 20.065 14.308 19.937 14.052C19.817 13.796 19.757 13.48 19.757 13.104C19.757 12.744 19.825 12.44 19.961 12.192C20.105 11.944 20.297 11.744 20.537 11.592C20.777 11.432 21.053 11.32 21.365 11.256C21.685 11.184 22.017 11.148 22.361 11.148C22.521 11.148 22.689 11.16 22.865 11.184C23.041 11.2 23.229 11.232 23.429 11.28V11.04C23.429 10.872 23.409 10.712 23.369 10.56C23.329 10.408 23.257 10.276 23.153 10.164C23.057 10.044 22.925 9.952 22.757 9.888C22.597 9.824 22.393 9.792 22.145 9.792C21.809 9.792 21.501 9.816 21.221 9.864C20.941 9.912 20.713 9.968 20.537 10.032L20.357 8.856C20.541 8.792 20.809 8.728 21.161 8.664C21.513 8.6 21.889 8.568 22.289 8.568ZM28.0751 15H26.6231V8.724H28.0751V15ZM28.2311 6.888C28.2311 7.16 28.1431 7.376 27.9671 7.536C27.7911 7.696 27.5831 7.776 27.3431 7.776C27.0951 7.776 26.8831 7.696 26.7071 7.536C26.5311 7.376 26.4431 7.16 26.4431 6.888C26.4431 6.608 26.5311 6.388 26.7071 6.228C26.8831 6.068 27.0951 5.988 27.3431 5.988C27.5831 5.988 27.7911 6.068 27.9671 6.228C28.1431 6.388 28.2311 6.608 28.2311 6.888ZM31.0675 11.844C31.0675 12.484 31.2195 12.988 31.5235 13.356C31.8275 13.716 32.2475 13.896 32.7835 13.896C33.0155 13.896 33.2115 13.888 33.3715 13.872C33.5395 13.848 33.6755 13.824 33.7795 13.8V10.2C33.6515 10.112 33.4795 10.032 33.2635 9.96C33.0555 9.88 32.8315 9.84 32.5915 9.84C32.0635 9.84 31.6755 10.02 31.4275 10.38C31.1875 10.74 31.0675 11.228 31.0675 11.844ZM35.2315 14.808C34.9435 14.896 34.5795 14.976 34.1395 15.048C33.7075 15.12 33.2515 15.156 32.7715 15.156C32.2755 15.156 31.8315 15.08 31.4395 14.928C31.0475 14.776 30.7115 14.56 30.4315 14.28C30.1595 13.992 29.9475 13.648 29.7955 13.248C29.6515 12.84 29.5795 12.384 29.5795 11.88C29.5795 11.384 29.6395 10.936 29.7595 10.536C29.8875 10.128 30.0715 9.78 30.3115 9.492C30.5515 9.204 30.8435 8.984 31.1875 8.832C31.5315 8.672 31.9275 8.592 32.3755 8.592C32.6795 8.592 32.9475 8.628 33.1795 8.7C33.4115 8.772 33.6115 8.852 33.7795 8.94V5.928L35.2315 5.688V14.808Z" fill="#49B7A5"/>
</svg>
