<svg width="119" height="24" viewBox="0 0 119 24" fill="none" xmlns="http://www.w3.org/2000/svg">
<rect x="-0.000366211" width="119" height="24" rx="8" fill="#F85379" fill-opacity="0.15"/>
<path d="M15.8356 7.2C17.2356 7.2 18.3043 7.45667 19.0416 7.97C19.7883 8.48333 20.1616 9.26733 20.1616 10.322C20.1616 11.638 19.513 12.5293 18.2156 12.996C18.393 13.2107 18.5936 13.472 18.8176 13.78C19.0416 14.088 19.2703 14.424 19.5036 14.788C19.737 15.1427 19.961 15.5113 20.1756 15.894C20.3903 16.2673 20.5816 16.636 20.7496 17H18.7756C18.5983 16.664 18.407 16.328 18.2016 15.992C17.9963 15.6467 17.7863 15.3153 17.5716 14.998C17.3663 14.6713 17.161 14.368 16.9556 14.088C16.7503 13.7987 16.559 13.542 16.3816 13.318C16.251 13.3273 16.139 13.332 16.0456 13.332C15.9523 13.332 15.8636 13.332 15.7796 13.332H14.9256V17H13.1616V7.438C13.591 7.34467 14.0483 7.284 14.5336 7.256C15.019 7.21867 15.453 7.2 15.8356 7.2ZM15.9616 8.726C15.5883 8.726 15.243 8.74 14.9256 8.768V11.904H15.6956C16.125 11.904 16.503 11.8807 16.8296 11.834C17.1563 11.7873 17.427 11.7033 17.6416 11.582C17.8656 11.4607 18.0336 11.2973 18.1456 11.092C18.2576 10.8867 18.3136 10.6253 18.3136 10.308C18.3136 10.0093 18.2576 9.75733 18.1456 9.552C18.0336 9.34667 17.8703 9.18333 17.6556 9.062C17.4503 8.94067 17.203 8.85667 16.9136 8.81C16.6243 8.754 16.307 8.726 15.9616 8.726ZM21.6267 13.374C21.6267 12.73 21.72 12.1653 21.9067 11.68C22.1027 11.1947 22.3594 10.7933 22.6767 10.476C22.994 10.1493 23.358 9.90667 23.7687 9.748C24.1794 9.58 24.5994 9.496 25.0287 9.496C26.0367 9.496 26.8207 9.80867 27.3807 10.434C27.95 11.0593 28.2347 11.9927 28.2347 13.234C28.2347 13.3273 28.23 13.4347 28.2207 13.556C28.2207 13.668 28.216 13.7707 28.2067 13.864H23.3767C23.4234 14.452 23.6287 14.9093 23.9927 15.236C24.366 15.5533 24.9027 15.712 25.6027 15.712C26.0134 15.712 26.3867 15.6747 26.7227 15.6C27.068 15.5253 27.3387 15.446 27.5347 15.362L27.7587 16.748C27.6654 16.7947 27.5347 16.846 27.3667 16.902C27.208 16.9487 27.0214 16.9907 26.8067 17.028C26.6014 17.0747 26.3774 17.112 26.1347 17.14C25.892 17.168 25.6447 17.182 25.3927 17.182C24.7487 17.182 24.1887 17.0887 23.7127 16.902C23.2367 16.706 22.8447 16.44 22.5367 16.104C22.2287 15.7587 22 15.3573 21.8507 14.9C21.7014 14.4333 21.6267 13.9247 21.6267 13.374ZM26.5407 12.618C26.5407 12.3847 26.508 12.1653 26.4427 11.96C26.3774 11.7453 26.2794 11.5633 26.1487 11.414C26.0274 11.2553 25.8734 11.134 25.6867 11.05C25.5094 10.9567 25.2947 10.91 25.0427 10.91C24.7814 10.91 24.5527 10.9613 24.3567 11.064C24.1607 11.1573 23.9927 11.2833 23.8527 11.442C23.722 11.6007 23.6194 11.7827 23.5447 11.988C23.47 12.1933 23.4187 12.4033 23.3907 12.618H26.5407ZM29.0928 19.604C28.9714 19.604 28.8034 19.59 28.5888 19.562C28.3648 19.5433 28.1688 19.5013 28.0008 19.436L28.2248 18.05C28.4301 18.1153 28.6774 18.148 28.9668 18.148C29.3588 18.148 29.6341 18.0313 29.7928 17.798C29.9514 17.574 30.0308 17.2333 30.0308 16.776V9.678H31.7248V16.804C31.7248 17.756 31.4961 18.4607 31.0388 18.918C30.5908 19.3753 29.9421 19.604 29.0928 19.604ZM31.9068 7.536C31.9068 7.85333 31.8041 8.10533 31.5988 8.292C31.3934 8.47867 31.1508 8.572 30.8708 8.572C30.5814 8.572 30.3341 8.47867 30.1288 8.292C29.9234 8.10533 29.8208 7.85333 29.8208 7.536C29.8208 7.20933 29.9234 6.95267 30.1288 6.766C30.3341 6.57933 30.5814 6.486 30.8708 6.486C31.1508 6.486 31.3934 6.57933 31.5988 6.766C31.8041 6.95267 31.9068 7.20933 31.9068 7.536ZM33.4802 13.374C33.4802 12.73 33.5736 12.1653 33.7602 11.68C33.9562 11.1947 34.2129 10.7933 34.5302 10.476C34.8476 10.1493 35.2116 9.90667 35.6222 9.748C36.0329 9.58 36.4529 9.496 36.8822 9.496C37.8902 9.496 38.6742 9.80867 39.2342 10.434C39.8036 11.0593 40.0882 11.9927 40.0882 13.234C40.0882 13.3273 40.0836 13.4347 40.0742 13.556C40.0742 13.668 40.0696 13.7707 40.0602 13.864H35.2302C35.2769 14.452 35.4822 14.9093 35.8462 15.236C36.2196 15.5533 36.7562 15.712 37.4562 15.712C37.8669 15.712 38.2402 15.6747 38.5762 15.6C38.9216 15.5253 39.1922 15.446 39.3882 15.362L39.6122 16.748C39.5189 16.7947 39.3882 16.846 39.2202 16.902C39.0616 16.9487 38.8749 16.9907 38.6602 17.028C38.4549 17.0747 38.2309 17.112 37.9882 17.14C37.7456 17.168 37.4982 17.182 37.2462 17.182C36.6022 17.182 36.0422 17.0887 35.5662 16.902C35.0902 16.706 34.6982 16.44 34.3902 16.104C34.0822 15.7587 33.8536 15.3573 33.7042 14.9C33.5549 14.4333 33.4802 13.9247 33.4802 13.374ZM38.3942 12.618C38.3942 12.3847 38.3616 12.1653 38.2962 11.96C38.2309 11.7453 38.1329 11.5633 38.0022 11.414C37.8809 11.2553 37.7269 11.134 37.5402 11.05C37.3629 10.9567 37.1482 10.91 36.8962 10.91C36.6349 10.91 36.4062 10.9613 36.2102 11.064C36.0142 11.1573 35.8462 11.2833 35.7062 11.442C35.5756 11.6007 35.4729 11.7827 35.3982 11.988C35.3236 12.1933 35.2722 12.4033 35.2442 12.618H38.3942ZM41.4783 13.346C41.4783 12.8047 41.5623 12.3007 41.7303 11.834C41.8983 11.358 42.1363 10.9473 42.4443 10.602C42.7616 10.2567 43.1443 9.986 43.5923 9.79C44.0403 9.594 44.5443 9.496 45.1043 9.496C45.7949 9.496 46.4483 9.622 47.0643 9.874L46.7003 11.26C46.5043 11.176 46.2803 11.106 46.0283 11.05C45.7856 10.994 45.5243 10.966 45.2443 10.966C44.5816 10.966 44.0776 11.176 43.7323 11.596C43.3869 12.0067 43.2143 12.59 43.2143 13.346C43.2143 14.074 43.3776 14.6527 43.7043 15.082C44.0309 15.502 44.5816 15.712 45.3563 15.712C45.6456 15.712 45.9303 15.684 46.2103 15.628C46.4903 15.572 46.7329 15.502 46.9383 15.418L47.1763 16.818C46.9896 16.9113 46.7049 16.9953 46.3223 17.07C45.9489 17.1447 45.5616 17.182 45.1603 17.182C44.5349 17.182 43.9889 17.0887 43.5223 16.902C43.0649 16.706 42.6823 16.44 42.3743 16.104C42.0756 15.7587 41.8516 15.3527 41.7023 14.886C41.5529 14.41 41.4783 13.8967 41.4783 13.346ZM48.4038 7.746L50.0978 7.466V9.678H52.7018V11.092H50.0978V14.074C50.0978 14.662 50.1911 15.082 50.3778 15.334C50.5645 15.586 50.8818 15.712 51.3298 15.712C51.6378 15.712 51.9085 15.6793 52.1418 15.614C52.3845 15.5487 52.5758 15.488 52.7158 15.432L52.9958 16.776C52.7998 16.86 52.5431 16.944 52.2258 17.028C51.9085 17.1213 51.5351 17.168 51.1058 17.168C50.5831 17.168 50.1445 17.098 49.7898 16.958C49.4445 16.818 49.1691 16.6173 48.9638 16.356C48.7585 16.0853 48.6138 15.7633 48.5298 15.39C48.4458 15.0073 48.4038 14.5733 48.4038 14.088V7.746ZM53.8103 13.374C53.8103 12.73 53.9036 12.1653 54.0903 11.68C54.2863 11.1947 54.543 10.7933 54.8603 10.476C55.1776 10.1493 55.5416 9.90667 55.9523 9.748C56.363 9.58 56.783 9.496 57.2123 9.496C58.2203 9.496 59.0043 9.80867 59.5643 10.434C60.1336 11.0593 60.4183 11.9927 60.4183 13.234C60.4183 13.3273 60.4136 13.4347 60.4043 13.556C60.4043 13.668 60.3996 13.7707 60.3903 13.864H55.5603C55.607 14.452 55.8123 14.9093 56.1763 15.236C56.5496 15.5533 57.0863 15.712 57.7863 15.712C58.197 15.712 58.5703 15.6747 58.9063 15.6C59.2516 15.5253 59.5223 15.446 59.7183 15.362L59.9423 16.748C59.849 16.7947 59.7183 16.846 59.5503 16.902C59.3916 16.9487 59.205 16.9907 58.9903 17.028C58.785 17.0747 58.561 17.112 58.3183 17.14C58.0756 17.168 57.8283 17.182 57.5763 17.182C56.9323 17.182 56.3723 17.0887 55.8963 16.902C55.4203 16.706 55.0283 16.44 54.7203 16.104C54.4123 15.7587 54.1836 15.3573 54.0343 14.9C53.885 14.4333 53.8103 13.9247 53.8103 13.374ZM58.7243 12.618C58.7243 12.3847 58.6916 12.1653 58.6263 11.96C58.561 11.7453 58.463 11.5633 58.3323 11.414C58.211 11.2553 58.057 11.134 57.8703 11.05C57.693 10.9567 57.4783 10.91 57.2263 10.91C56.965 10.91 56.7363 10.9613 56.5403 11.064C56.3443 11.1573 56.1763 11.2833 56.0363 11.442C55.9056 11.6007 55.803 11.7827 55.7283 11.988C55.6536 12.1933 55.6023 12.4033 55.5743 12.618H58.7243ZM63.5444 13.318C63.5444 14.0647 63.7217 14.6527 64.0764 15.082C64.431 15.502 64.921 15.712 65.5464 15.712C65.817 15.712 66.0457 15.7027 66.2324 15.684C66.4284 15.656 66.587 15.628 66.7084 15.6V11.4C66.559 11.2973 66.3584 11.204 66.1064 11.12C65.8637 11.0267 65.6024 10.98 65.3224 10.98C64.7064 10.98 64.2537 11.19 63.9644 11.61C63.6844 12.03 63.5444 12.5993 63.5444 13.318ZM68.4024 16.776C68.0664 16.8787 67.6417 16.972 67.1284 17.056C66.6244 17.14 66.0924 17.182 65.5324 17.182C64.9537 17.182 64.4357 17.0933 63.9784 16.916C63.521 16.7387 63.129 16.4867 62.8024 16.16C62.485 15.824 62.2377 15.4227 62.0604 14.956C61.8924 14.48 61.8084 13.948 61.8084 13.36C61.8084 12.7813 61.8784 12.2587 62.0184 11.792C62.1677 11.316 62.3824 10.91 62.6624 10.574C62.9424 10.238 63.283 9.98133 63.6844 9.804C64.0857 9.61733 64.5477 9.524 65.0704 9.524C65.425 9.524 65.7377 9.566 66.0084 9.65C66.279 9.734 66.5124 9.82733 66.7084 9.93V6.416L68.4024 6.136V16.776ZM78.6798 13.318C78.6798 12.5993 78.5351 12.03 78.2458 11.61C77.9658 11.19 77.5178 10.98 76.9018 10.98C76.6218 10.98 76.3558 11.022 76.1038 11.106C75.8611 11.19 75.6651 11.2833 75.5158 11.386V15.6C75.6371 15.628 75.7911 15.656 75.9778 15.684C76.1738 15.7027 76.4071 15.712 76.6778 15.712C77.3031 15.712 77.7931 15.502 78.1478 15.082C78.5024 14.6527 78.6798 14.0647 78.6798 13.318ZM80.4158 13.346C80.4158 13.934 80.3271 14.466 80.1498 14.942C79.9818 15.4087 79.7344 15.81 79.4078 16.146C79.0904 16.482 78.7031 16.7387 78.2458 16.916C77.7884 17.0933 77.2704 17.182 76.6918 17.182C76.1318 17.182 75.5951 17.14 75.0818 17.056C74.5778 16.972 74.1578 16.8787 73.8218 16.776V6.416L75.5158 6.136V9.93C75.7118 9.82733 75.9498 9.734 76.2298 9.65C76.5191 9.566 76.8364 9.524 77.1818 9.524C77.6951 9.524 78.1524 9.61733 78.5538 9.804C78.9644 9.98133 79.3051 10.238 79.5758 10.574C79.8464 10.91 80.0518 11.316 80.1918 11.792C80.3411 12.2587 80.4158 12.7767 80.4158 13.346ZM87.9892 9.678C87.2332 12.4593 86.3559 14.9793 85.3572 17.238C85.1706 17.658 84.9792 18.0173 84.7832 18.316C84.5872 18.6147 84.3679 18.862 84.1252 19.058C83.8826 19.254 83.6119 19.394 83.3132 19.478C83.0146 19.5713 82.6692 19.618 82.2772 19.618C82.0159 19.618 81.7546 19.59 81.4932 19.534C81.2412 19.478 81.0499 19.4173 80.9192 19.352L81.2272 17.994C81.5632 18.1247 81.8946 18.19 82.2212 18.19C82.6599 18.19 83.0006 18.0827 83.2432 17.868C83.4952 17.6627 83.7146 17.3407 83.9012 16.902C83.3692 15.8753 82.8559 14.7553 82.3612 13.542C81.8759 12.3287 81.4419 11.0407 81.0592 9.678H82.8652C82.9586 10.07 83.0706 10.4947 83.2012 10.952C83.3412 11.4093 83.4906 11.876 83.6492 12.352C83.8079 12.8187 83.9759 13.2853 84.1532 13.752C84.3306 14.2187 84.5079 14.6527 84.6852 15.054C84.9839 14.2233 85.2639 13.3413 85.5252 12.408C85.7866 11.4653 86.0246 10.5553 86.2392 9.678H87.9892ZM92.6226 7.298H94.3866V17H92.6226V7.298ZM98.1525 12.142C98.1525 12.674 98.2178 13.1593 98.3485 13.598C98.4791 14.0273 98.6658 14.396 98.9085 14.704C99.1605 15.0027 99.4638 15.236 99.8185 15.404C100.173 15.572 100.574 15.656 101.022 15.656C101.461 15.656 101.858 15.572 102.212 15.404C102.567 15.236 102.866 15.0027 103.108 14.704C103.36 14.396 103.552 14.0273 103.682 13.598C103.813 13.1593 103.878 12.674 103.878 12.142C103.878 11.61 103.813 11.1293 103.682 10.7C103.552 10.2613 103.36 9.89267 103.108 9.594C102.866 9.286 102.567 9.048 102.212 8.88C101.858 8.712 101.461 8.628 101.022 8.628C100.574 8.628 100.173 8.712 99.8185 8.88C99.4638 9.048 99.1605 9.286 98.9085 9.594C98.6658 9.902 98.4791 10.2707 98.3485 10.7C98.2178 11.1293 98.1525 11.61 98.1525 12.142ZM105.726 12.142C105.726 12.842 105.638 13.472 105.46 14.032C105.283 14.592 105.036 15.082 104.718 15.502C104.401 15.9127 104.028 16.2487 103.598 16.51C103.178 16.7713 102.716 16.958 102.212 17.07C102.24 17.266 102.338 17.434 102.506 17.574C102.674 17.714 102.884 17.8307 103.136 17.924C103.398 18.0173 103.692 18.092 104.018 18.148C104.354 18.2133 104.704 18.26 105.068 18.288L104.676 19.618C103.472 19.5247 102.516 19.2913 101.806 18.918C101.097 18.554 100.644 17.9707 100.448 17.168C99.8698 17.112 99.3285 16.9627 98.8245 16.72C98.3298 16.4773 97.8958 16.146 97.5225 15.726C97.1491 15.306 96.8551 14.7973 96.6405 14.2C96.4258 13.6027 96.3185 12.9167 96.3185 12.142C96.3185 11.3113 96.4445 10.5833 96.6965 9.958C96.9485 9.32333 97.2891 8.79133 97.7185 8.362C98.1571 7.93267 98.6611 7.61067 99.2305 7.396C99.7998 7.18133 100.402 7.074 101.036 7.074C101.671 7.074 102.273 7.18133 102.842 7.396C103.412 7.61067 103.906 7.93267 104.326 8.362C104.756 8.79133 105.096 9.32333 105.348 9.958C105.6 10.5833 105.726 11.3113 105.726 12.142Z" fill="#F85379"/>
</svg>
