<svg width="24" height="24" viewBox="0 0 24 24" fill="none" xmlns="http://www.w3.org/2000/svg">
<path fill-rule="evenodd" clip-rule="evenodd" d="M16.3344 2H7.66537C4.26779 2 2.00037 4.4326 2.00037 7.916V16.084C2.00037 19.5707 4.26174 22 7.66537 22H16.3334C19.738 22 22.0004 19.5707 22.0004 16.084V7.916C22.0004 4.4295 19.7381 2 16.3344 2ZM7.66537 3.5H16.3344C18.8849 3.5 20.5004 5.23496 20.5004 7.916V16.084C20.5004 18.7652 18.8847 20.5 16.3334 20.5H7.66537C5.11513 20.5 3.50037 18.7653 3.50037 16.084V7.916C3.50037 5.23837 5.12071 3.5 7.66537 3.5ZM16.0902 9.09667C15.7973 8.80378 15.3224 8.80378 15.0295 9.09667L10.813 13.3118L8.97008 11.4696L8.88595 11.397C8.59229 11.1792 8.17563 11.2035 7.90942 11.4698C7.61659 11.7627 7.61669 12.2376 7.90965 12.5304L10.2836 14.9034L10.3678 14.976C10.6614 15.1938 11.078 15.1696 11.3442 14.9033L16.0902 10.1573L16.1628 10.0732C16.3807 9.7796 16.3565 9.36294 16.0902 9.09667Z" fill="#A6A6A6"/>
</svg>
